# xmcd
#
# Track frame offsets:
#       150
#       10425
#       21975
#       31575
#       42975
#       52650
#       62850
#       77325
#       88875
#       97425
#       109350
#       121275
#       130800
#       140250
#
# Disc length: 2020 seconds
#
# Revision: 1
# Processed by: cddbd v1.4PL0 Copyright (c) Steve Scherf et al.
# Submitted via: MusiCat 1.1
#
DISCID=b907e20e
DTITLE=Beatles - Help!
DYEAR=1900
DGENRE=
TTITLE0=Help!
TTITLE1=The night before
TTITLE2=You've got to hide your love away
TTITLE3=I need you
TTITLE4=Another girl
TTITLE5=You're going to lose that girl
TTITLE6=Ticket to ride
TTITLE7=Act naturally
TTITLE8=It's only love
TTITLE9=You like me too much
TTITLE10=Tell me what you see
TTITLE11=I've just seen a face
TTITLE12=Yesterday
TTITLE13=Dizzy miss Lizzie
EXTD=0\n\n\n
EXTT0=
EXTT1=
EXTT2=
EXTT3=
EXTT4=
EXTT5=
EXTT6=
EXTT7=
EXTT8=
EXTT9=
EXTT10=
EXTT11=
EXTT12=
EXTT13=
PLAYORDER=
